<svg height='300px' width='300px'  fill="#000000" xmlns="http://www.w3.org/2000/svg" xmlns:xlink="http://www.w3.org/1999/xlink" version="1.1" x="0px" y="0px" viewBox="0 0 100 100" enable-background="new 0 0 100 100" xml:space="preserve"><path d="M50,0.728c-23.031,0-41.073,18.4-41.073,41.885c0,39.824,37.633,54.71,39.235,55.321c0.591,0.231,1.213,0.341,1.837,0.341  s1.246-0.109,1.837-0.341c1.602-0.611,39.232-15.497,39.232-55.321C91.07,19.128,73.031,0.728,50,0.728z M50.018,87.541  c-6.874-3.259-30.822-16.66-30.822-44.928c0-0.938,0.058-1.86,0.133-2.778c0.374,6.758,3.587,22.05,25.222,22.05  c0,0,4.964-24.958-24.815-25.194C22.37,21.891,34.708,10.996,50,10.996c15.29,0,27.633,10.895,30.265,25.696  c-29.779,0.235-24.812,25.194-24.812,25.194c21.629,0,24.848-15.292,25.219-22.045c0.075,0.913,0.131,1.835,0.131,2.773  C80.803,71.097,57.007,84.282,50.018,87.541z"></path></svg>